<?xml version="1.0" standalone="no"?>
<!DOCTYPE svg PUBLIC "-//W3C//DTD SVG 20010904//EN"
 "http://www.w3.org/TR/2001/REC-SVG-20010904/DTD/svg10.dtd">
<svg version="1.0" xmlns="http://www.w3.org/2000/svg"
 width="2048.000000pt" height="2048.000000pt" viewBox="0 0 2048.000000 2048.000000"
 preserveAspectRatio="xMidYMid meet">

<g transform="translate(0.000000,2048.000000) scale(0.100000,-0.100000)"
fill="#000000" stroke="none">
<path d="M9865 16150 c-65 -12 -95 -27 -95 -50 0 -28 -28 -37 -44 -15 -18 25
-57 13 -100 -30 -20 -19 -42 -35 -51 -35 -17 0 -21 -25 -5 -35 28 -17 -10 -74
-45 -67 -14 2 -49 -73 -41 -87 4 -6 2 -11 -3 -11 -6 0 -11 -4 -11 -9 0 -5 -7
-25 -15 -46 -12 -27 -19 -34 -28 -26 -9 7 -25 0 -57 -25 -25 -20 -47 -41 -49
-47 -10 -31 -48 -71 -80 -86 -44 -20 -171 -155 -171 -182 0 -12 -13 -27 -32
-37 -18 -9 -60 -45 -95 -79 -34 -35 -66 -63 -71 -63 -15 0 -193 -184 -207
-215 -17 -38 -33 -56 -67 -78 -22 -14 -28 -25 -28 -52 0 -34 -12 -46 -25 -25
-11 18 -35 11 -44 -13 -5 -13 -16 -29 -26 -37 -9 -7 -22 -28 -30 -47 -11 -25
-20 -33 -39 -33 -24 0 -36 -18 -41 -60 -2 -19 -16 -73 -22 -83 -3 -5 -14 0
-25 9 -16 16 -21 16 -28 4 -6 -8 -12 -29 -16 -46 -3 -18 -15 -37 -27 -43 -12
-7 -30 -25 -39 -41 -10 -17 -25 -30 -36 -30 -26 0 -44 -23 -36 -45 8 -20 -15
-38 -32 -24 -7 6 -16 4 -24 -6 -8 -9 -28 -22 -46 -30 -18 -7 -38 -23 -44 -35
-7 -12 -26 -35 -43 -50 -21 -18 -37 -45 -45 -76 -8 -27 -15 -54 -17 -60 -2 -6
-24 -15 -49 -18 -39 -6 -52 -15 -87 -56 -23 -27 -50 -52 -60 -55 -10 -4 -32
-27 -50 -53 -24 -36 -29 -50 -21 -63 24 -39 -22 -91 -82 -93 -23 -1 -32 -6
-34 -21 -2 -14 -20 -29 -52 -44 -29 -14 -58 -37 -69 -55 -11 -17 -34 -39 -51
-49 -37 -22 -85 -93 -85 -127 0 -19 -7 -25 -30 -30 -47 -10 -65 -23 -89 -66
-12 -21 -31 -43 -44 -49 -12 -5 -22 -16 -22 -24 0 -26 -52 -91 -72 -91 -10 0
-21 -8 -25 -17 -11 -31 -34 -51 -53 -46 -12 3 -22 -3 -31 -19 -7 -12 -20 -29
-31 -36 -10 -7 -18 -19 -18 -25 0 -7 -24 -31 -54 -53 -42 -33 -55 -50 -60 -78
-6 -32 -13 -40 -59 -60 -36 -16 -63 -39 -87 -71 -19 -25 -45 -56 -57 -68 -13
-11 -23 -26 -23 -32 0 -6 -13 -25 -30 -43 -17 -18 -30 -38 -30 -43 0 -5 -12
-15 -27 -21 -44 -19 -113 -76 -145 -120 -9 -13 -28 -36 -41 -53 -31 -38 -36
-56 -26 -77 11 -20 1 -50 -13 -42 -19 12 -68 -19 -85 -53 -12 -26 -30 -41 -74
-61 -33 -15 -59 -32 -59 -38 0 -6 -9 -19 -20 -29 l-20 -18 20 -22 20 -22 -38
-11 c-24 -7 -43 -21 -49 -35 -6 -13 -27 -36 -47 -53 -93 -75 -117 -98 -115
-113 3 -33 -2 -41 -33 -48 -27 -7 -38 -19 -62 -67 -17 -33 -32 -54 -34 -48 -8
25 -41 11 -58 -23 -10 -23 -31 -43 -55 -56 -22 -11 -50 -37 -64 -60 -14 -22
-36 -44 -50 -49 -13 -5 -26 -18 -30 -29 -3 -12 -15 -26 -26 -31 -10 -6 -19
-21 -19 -33 -1 -33 -24 -57 -54 -57 -21 0 -30 -7 -41 -32 -20 -47 -76 -105
-108 -113 -16 -4 -36 -19 -45 -34 -9 -14 -63 -72 -120 -129 -70 -70 -104 -112
-109 -132 -3 -17 -14 -35 -23 -40 -33 -17 -100 -93 -100 -111 0 -12 -13 -24
-35 -33 -25 -11 -36 -23 -42 -47 -7 -25 -17 -35 -43 -44 -28 -9 -38 -20 -48
-51 -15 -46 -39 -74 -62 -74 -20 0 -50 -31 -50 -52 0 -8 -26 -36 -59 -61 -32
-25 -64 -60 -71 -76 -7 -18 -21 -31 -33 -33 -17 -2 -25 -14 -33 -47 -6 -25
-17 -47 -25 -49 -32 -8 -89 -36 -89 -43 0 -4 -21 -29 -46 -56 -45 -47 -74 -98
-79 -138 -1 -11 -3 -24 -4 -29 0 -6 -6 -5 -13 2 -17 17 -31 15 -56 -8 -13 -12
-22 -33 -22 -50 0 -20 -5 -30 -14 -30 -22 0 -104 -58 -117 -82 -6 -12 -24 -32
-40 -45 -26 -22 -89 -106 -89 -119 0 -9 -55 -53 -66 -54 -17 0 -61 -52 -77
-92 -9 -20 -27 -44 -41 -53 -14 -10 -26 -25 -26 -34 0 -10 -18 -27 -39 -39
-24 -14 -41 -31 -43 -45 -2 -16 -9 -21 -26 -19 -16 2 -22 -2 -22 -16 0 -20
-29 -52 -48 -52 -17 0 -92 -70 -92 -86 0 -7 -12 -21 -27 -31 -41 -27 -173
-158 -173 -172 0 -40 -66 -130 -96 -131 -6 0 -38 -30 -72 -67 -34 -38 -81 -87
-104 -111 l-43 -43 22 -16 c13 -8 23 -21 23 -27 0 -12 -38 -31 -85 -42 -53
-12 -75 -35 -107 -106 -7 -16 -18 -28 -24 -28 -21 0 -81 -44 -100 -73 -11 -16
-31 -35 -46 -43 -15 -7 -48 -38 -73 -67 -52 -60 -92 -78 -156 -70 -35 5 -41 3
-46 -15 -5 -19 -7 -19 -39 -6 -44 18 -88 9 -81 -17 7 -25 -1 -24 -30 3 l-23
22 -28 -27 c-16 -15 -35 -27 -43 -27 -7 0 -27 -18 -43 -40 -17 -22 -37 -40
-46 -40 -8 0 -21 -9 -28 -21 -9 -14 -19 -18 -33 -14 -15 5 -22 0 -30 -24 -6
-17 -17 -31 -24 -31 -20 0 -85 -77 -85 -101 0 -11 -13 -33 -29 -49 -15 -16
-35 -44 -44 -62 -9 -18 -28 -44 -42 -57 -14 -13 -25 -29 -25 -36 0 -7 -13 -24
-29 -38 -27 -22 -28 -27 -16 -43 22 -28 18 -52 -7 -56 -15 -2 -24 -11 -26 -27
-2 -13 -15 -41 -29 -62 -14 -21 -22 -43 -18 -49 4 -6 -1 -20 -10 -30 -10 -11
-15 -26 -12 -34 7 -17 -23 -104 -52 -149 -19 -30 -19 -33 -3 -60 17 -28 17
-29 -11 -49 -20 -14 -26 -26 -22 -40 4 -10 2 -24 -3 -31 -5 -7 -12 -30 -16
-53 -5 -37 -3 -42 20 -53 32 -14 26 -36 -10 -36 -23 0 -30 -6 -41 -39 -13 -38
-13 -38 16 -49 32 -12 39 -37 11 -37 -30 0 -42 -21 -42 -76 0 -28 -5 -65 -11
-83 -10 -29 -9 -33 20 -60 18 -17 42 -31 54 -33 12 -2 22 -10 22 -18 0 -11 -9
-14 -37 -12 -43 4 -59 -16 -60 -79 0 -28 -6 -42 -19 -50 -29 -15 -25 -67 6
-81 15 -7 25 -20 25 -31 0 -12 9 -31 21 -43 13 -14 22 -41 26 -77 5 -45 10
-57 29 -66 19 -8 24 -18 24 -45 0 -31 4 -36 36 -46 27 -9 40 -21 54 -54 9 -22
27 -50 39 -60 14 -13 18 -23 11 -31 -12 -14 87 -122 143 -155 47 -27 73 -65
68 -99 -2 -21 0 -24 10 -13 23 22 58 15 65 -14 5 -18 19 -32 48 -45 35 -15 44
-25 59 -68 13 -38 24 -52 42 -57 13 -3 27 -14 30 -24 3 -10 16 -25 29 -33 15
-10 25 -30 30 -56 7 -45 41 -71 94 -71 61 0 85 -17 118 -83 22 -44 40 -67 63
-79 18 -9 43 -26 55 -37 12 -12 28 -21 34 -21 6 0 18 -13 26 -28 8 -16 30 -40
49 -55 19 -14 53 -44 76 -66 25 -24 52 -41 66 -41 13 0 26 -4 29 -9 3 -4 17
-6 32 -3 15 3 46 -5 75 -19 44 -20 55 -21 91 -12 34 9 47 8 87 -10 55 -25 178
-25 254 0 36 12 51 13 60 4 18 -18 54 -13 109 15 34 17 60 24 78 20 17 -3 42
2 63 13 32 16 35 16 45 1 8 -14 20 -15 70 -9 33 3 66 10 72 14 8 5 19 -1 30
-15 16 -22 20 -22 61 -10 24 7 64 13 89 14 29 1 69 13 114 35 56 29 71 32 87
23 26 -16 50 -15 77 4 21 14 24 14 49 -4 27 -20 28 -20 66 0 28 14 42 17 50 9
18 -18 67 -13 100 11 29 21 31 21 59 5 33 -19 78 -23 78 -7 0 6 21 10 48 10
72 0 120 16 124 43 4 29 63 58 104 52 22 -4 33 -1 37 9 9 22 72 32 138 20 31
-5 41 -1 71 25 30 26 39 29 66 22 25 -7 34 -6 48 10 9 10 23 19 29 19 7 0 25
10 40 22 20 16 32 19 43 11 19 -12 94 8 132 35 31 21 85 47 125 59 23 6 30 15
30 33 0 15 8 26 20 30 11 3 42 16 69 28 28 13 68 24 91 26 23 2 51 9 63 15 12
6 50 20 85 31 35 11 74 31 87 45 13 14 29 25 36 25 7 0 24 14 37 30 14 17 30
30 36 30 5 0 19 13 31 30 12 16 26 30 32 30 32 0 89 36 103 66 9 19 25 34 40
38 27 7 65 43 65 62 0 17 47 87 66 97 8 4 18 5 24 2 18 -11 61 8 75 34 7 14
37 50 65 79 45 47 50 57 45 85 -8 44 8 66 35 49 31 -19 46 -15 77 23 15 19 44
52 63 73 19 21 46 61 59 88 14 27 41 68 60 90 20 23 42 62 49 87 8 25 22 53
33 63 10 9 19 23 19 31 0 7 9 21 21 31 11 9 28 33 38 53 17 34 17 37 -1 59
-20 25 -24 55 -7 65 6 4 13 -2 16 -14 7 -26 21 -27 30 -3 3 9 17 29 30 43 24
26 46 91 63 189 6 34 17 61 29 71 11 9 18 19 15 22 -9 9 26 71 54 94 26 22 26
22 9 58 -21 44 -21 44 1 38 26 -6 72 14 72 32 0 8 -4 15 -10 15 -15 0 -31 37
-24 55 6 14 15 15 55 10 l49 -7 -6 31 c-8 38 13 66 56 75 19 3 38 19 54 43 40
60 51 72 79 82 17 7 27 18 27 31 0 14 15 27 49 45 27 13 58 35 68 47 10 13 32
30 48 38 16 8 32 26 35 40 9 36 88 89 126 83 25 -4 35 0 52 22 12 15 22 35 22
45 0 19 39 40 75 40 13 0 40 15 62 36 21 20 50 42 65 50 21 11 28 22 28 44 0
23 5 31 24 36 14 3 29 18 36 35 12 27 16 29 70 29 44 0 61 4 75 20 10 11 22
17 27 14 18 -12 97 18 113 42 9 14 25 24 40 24 13 0 27 4 30 10 3 6 14 10 25
10 10 0 20 6 23 14 3 7 23 16 46 19 27 3 59 20 98 50 32 25 90 61 129 81 40
20 74 42 77 50 3 8 23 24 44 35 44 22 77 57 63 66 -6 4 -10 13 -10 21 0 12 7
14 29 9 22 -5 34 -1 48 14 10 11 23 26 30 33 7 7 35 29 62 48 28 20 55 47 60
63 7 18 22 32 41 39 22 7 36 21 46 48 9 21 22 41 31 44 9 4 13 16 11 35 -3 31
24 71 49 71 8 0 29 16 46 36 18 20 49 47 70 60 22 15 37 32 37 44 0 23 42 88
70 107 11 8 36 38 55 68 20 30 44 57 53 60 26 9 95 104 109 148 6 22 20 45 31
53 11 7 22 31 26 53 4 24 14 44 25 50 10 6 23 28 28 50 9 33 8 41 -5 46 -8 3
-12 8 -9 11 3 3 14 0 24 -7 28 -17 67 11 82 60 6 21 18 42 26 45 8 3 15 14 15
24 0 10 12 29 26 43 48 45 86 143 89 236 1 34 8 69 15 78 7 8 10 25 7 37 -4
12 -2 27 4 34 12 14 -6 89 -28 115 -16 19 -18 120 -2 136 11 11 8 87 -6 164
-6 31 -4 37 14 42 14 3 21 13 21 29 0 28 -14 47 -56 76 -33 23 -48 61 -60 151
-11 86 -66 202 -106 226 -18 11 -42 31 -53 45 -98 125 -164 159 -276 141 -34
-6 -67 -15 -72 -20 -7 -7 -15 -5 -23 7 -10 14 -16 15 -32 6 -10 -7 -31 -9 -47
-7 -19 4 -30 1 -37 -11 -6 -10 -22 -16 -48 -16 -44 0 -135 -52 -157 -89 -7
-11 -28 -23 -48 -27 -20 -3 -40 -15 -46 -25 -6 -12 -21 -19 -37 -19 -18 0 -51
-18 -97 -55 -38 -30 -73 -55 -79 -55 -6 0 -22 -11 -36 -24 -74 -71 -105 -95
-130 -101 -15 -3 -38 -17 -51 -31 -13 -14 -39 -27 -61 -31 -22 -3 -45 -14 -52
-25 -8 -11 -27 -27 -43 -36 -76 -43 -98 -59 -117 -81 -46 -53 -109 -111 -122
-111 -7 0 -29 -20 -50 -45 -20 -25 -42 -45 -50 -45 -7 0 -28 -18 -46 -41 -18
-22 -59 -67 -90 -100 -32 -33 -58 -64 -58 -69 0 -5 -16 -17 -36 -26 -20 -9
-41 -29 -47 -43 -13 -31 -47 -71 -59 -71 -21 0 -168 -127 -168 -145 0 -14 -59
-65 -76 -65 -10 0 -27 -9 -38 -19 -12 -11 -39 -26 -61 -33 -34 -11 -41 -18
-43 -43 -4 -35 -26 -55 -62 -55 -14 0 -34 -6 -45 -14 -11 -7 -37 -19 -57 -25
-20 -7 -40 -20 -43 -31 -3 -10 -24 -30 -47 -45 -34 -23 -45 -25 -64 -16 -25
11 -54 4 -88 -23 -18 -15 -18 -16 3 -51 11 -20 21 -38 21 -41 0 -9 -47 -3 -72
10 -27 14 -41 13 -168 -10 -19 -3 -39 -12 -45 -19 -5 -6 -35 -17 -65 -24 -30
-7 -99 -26 -152 -43 -97 -30 -128 -31 -128 -4 0 9 12 16 33 18 30 3 32 5 31
41 -1 32 2 37 21 37 16 0 27 11 39 38 9 20 30 60 46 87 42 73 49 91 44 111 -3
12 10 37 36 68 22 26 40 52 40 56 0 5 9 12 20 15 38 12 82 58 105 110 14 33
37 63 61 81 47 35 54 43 47 60 -2 7 5 17 16 24 12 6 21 21 21 33 0 12 15 37
32 56 27 30 32 32 40 17 8 -14 12 -15 25 -4 9 7 23 25 32 39 9 14 43 49 76 76
33 28 76 71 95 97 23 30 43 45 58 46 15 0 26 9 33 28 5 15 15 32 22 37 7 6 20
23 30 38 10 16 34 35 53 43 19 8 37 21 40 28 3 8 16 17 29 20 13 3 26 15 30
26 6 20 122 130 137 130 4 0 8 7 8 15 0 8 15 28 34 45 31 29 44 60 49 118 1
16 7 22 19 19 27 -7 106 81 110 122 3 30 8 36 35 43 25 6 34 15 38 36 10 47
39 95 83 140 23 23 42 46 42 50 0 5 9 17 19 29 19 20 65 101 66 116 0 4 11 13
25 20 16 8 27 25 32 51 5 22 14 46 21 54 6 8 12 29 12 46 0 26 5 32 33 41 29
8 33 13 29 35 -2 14 -8 33 -12 43 -6 14 -2 17 21 18 75 3 75 3 89 42 7 21 20
46 29 56 9 10 16 23 16 29 0 6 9 17 20 25 13 9 19 23 17 42 -2 25 2 30 27 35
21 3 32 13 36 30 7 25 172 200 189 200 5 0 15 15 22 33 25 60 54 95 92 113 47
22 77 62 77 103 0 38 34 94 84 139 20 18 36 37 36 43 0 6 11 24 24 40 14 16
22 36 19 47 -3 14 6 23 36 37 36 16 41 22 41 51 0 24 8 39 30 57 17 14 30 30
30 36 0 6 9 15 20 21 11 6 20 18 20 26 0 8 12 26 26 39 15 14 24 31 21 39 -3
8 -3 16 1 18 5 2 18 20 31 41 12 20 28 37 34 37 22 0 67 68 67 100 0 20 12 47
35 77 19 25 35 52 35 59 0 18 -39 38 -70 37 -21 -1 -22 -1 -3 3 12 3 23 12 25
21 2 9 19 22 38 28 25 8 37 20 43 41 5 16 21 37 36 46 35 20 43 58 24 114 -22
65 -16 77 39 79 58 3 75 16 84 64 8 45 18 64 49 95 14 14 25 37 26 53 0 16 15
48 35 73 42 56 57 89 51 117 -3 17 5 29 29 48 29 22 33 31 39 92 6 53 13 74
32 95 24 25 25 30 15 69 -8 33 -8 50 4 77 7 19 11 38 8 44 -3 5 3 31 15 57 15
37 19 60 14 98 -4 42 -2 54 14 70 11 11 21 33 21 49 3 106 14 220 22 228 6 6
10 20 10 32 0 13 7 29 15 38 10 9 13 24 10 39 -5 17 -2 26 9 30 9 4 16 18 16
32 0 14 11 37 25 51 28 28 31 45 13 77 -6 12 -12 33 -14 47 -1 14 -5 44 -9 67
-7 40 -6 43 19 53 39 14 33 45 -14 75 -28 18 -40 32 -40 49 0 13 -7 30 -16 37
-12 10 -15 24 -10 56 7 56 -14 106 -53 123 -17 7 -36 18 -42 26 -6 8 -22 14
-36 14 -13 0 -42 9 -65 21 -30 16 -53 20 -85 16 -36 -4 -45 -1 -54 14 -10 20
-19 21 -84 9z m-145 -84 c0 -3 -4 -8 -10 -11 -5 -3 -10 -1 -10 4 0 6 5 11 10
11 6 0 10 -2 10 -4z m244 -82 c13 -5 14 -9 4 -21 -16 -20 8 -35 43 -27 22 4
28 0 39 -25 6 -16 9 -35 5 -41 -4 -6 0 -19 9 -28 8 -10 22 -34 30 -53 17 -40
9 -76 -34 -173 -19 -41 -21 -55 -12 -80 12 -35 5 -86 -13 -101 -7 -5 -15 -46
-19 -90 -5 -73 -8 -82 -36 -106 -16 -14 -30 -35 -30 -46 0 -11 -11 -32 -25
-47 -31 -34 -31 -53 -1 -95 14 -18 22 -39 19 -47 -6 -16 -19 -18 -28 -4 -10
16 -33 12 -54 -9 -15 -15 -18 -28 -14 -58 3 -21 1 -55 -5 -75 -8 -28 -7 -39 5
-51 13 -13 13 -18 -2 -41 -10 -14 -21 -26 -26 -26 -14 0 -79 -109 -79 -134 0
-13 -9 -35 -20 -49 -11 -14 -20 -30 -20 -37 0 -6 -12 -23 -26 -37 -14 -14 -32
-46 -39 -70 -8 -25 -21 -53 -30 -63 -9 -10 -21 -37 -26 -60 -5 -23 -18 -50
-29 -59 -14 -11 -17 -20 -11 -30 8 -12 12 -12 25 -2 13 11 16 11 16 -2 0 -8
-7 -20 -16 -28 -10 -8 -13 -21 -9 -36 4 -19 -5 -34 -51 -78 -31 -30 -59 -55
-63 -55 -9 0 -46 -62 -47 -80 -1 -25 -26 -74 -53 -103 -22 -24 -26 -39 -27
-90 -1 -60 -2 -62 -30 -67 -20 -4 -30 -12 -32 -27 -2 -12 -11 -25 -21 -28 -27
-8 -56 -44 -90 -112 -26 -51 -30 -68 -25 -103 6 -39 6 -42 -16 -38 -32 4 -36
-16 -5 -30 14 -7 25 -20 25 -31 0 -22 -65 -75 -81 -66 -15 10 -59 -34 -59 -59
0 -25 -41 -47 -63 -35 -19 11 -32 -5 -46 -58 -8 -30 -20 -47 -39 -57 -15 -8
-68 -50 -116 -94 -62 -56 -93 -92 -102 -118 -13 -38 -28 -53 -54 -54 -31 -1
-100 -88 -100 -125 0 -8 -8 -19 -17 -24 -29 -15 -59 -79 -45 -93 17 -17 15
-28 -7 -28 -10 0 -39 -9 -64 -20 -33 -15 -48 -28 -56 -51 -6 -16 -19 -42 -31
-56 -28 -36 -28 -99 1 -106 12 -3 18 -10 14 -16 -4 -7 -12 -8 -24 -2 -26 15
-83 -17 -102 -57 -10 -18 -33 -49 -53 -68 -20 -19 -39 -47 -42 -62 -8 -30 -63
-112 -75 -112 -5 0 -15 -12 -23 -27 -9 -16 -49 -64 -91 -108 -64 -68 -75 -84
-71 -106 3 -15 2 -43 -1 -63 -5 -29 -10 -36 -29 -36 -15 0 -30 -10 -41 -27
-10 -16 -24 -32 -31 -36 -7 -5 -17 -20 -23 -34 -7 -20 -6 -28 8 -40 17 -13 16
-14 -9 -8 -20 4 -28 1 -28 -9 0 -8 -6 -16 -14 -19 -15 -6 -143 -188 -156 -222
-10 -27 -80 -82 -133 -105 -24 -11 -51 -28 -61 -39 -10 -10 -28 -22 -41 -25
-13 -3 -27 -18 -33 -34 -5 -15 -26 -41 -47 -57 -39 -32 -87 -79 -230 -229
-151 -158 -225 -254 -225 -293 0 -52 -11 -75 -32 -70 -29 8 -109 -43 -104 -66
3 -10 -4 -23 -15 -30 -26 -16 -24 -22 11 -37 17 -7 30 -16 30 -20 0 -13 -47
-28 -61 -19 -42 27 -104 -5 -81 -41 10 -17 5 -24 -37 -60 -34 -29 -52 -53 -60
-83 -7 -23 -26 -61 -42 -85 -17 -23 -33 -58 -36 -78 -3 -20 -13 -38 -22 -41
-29 -11 -60 -45 -54 -60 4 -9 -3 -22 -15 -32 -13 -10 -24 -35 -30 -69 -8 -44
-6 -59 9 -90 23 -45 26 -112 4 -112 -23 0 -18 -34 6 -45 12 -6 21 -14 21 -20
-1 -20 -19 -15 -50 15 -18 16 -36 30 -41 30 -11 0 -21 -25 -21 -56 0 -19 5
-24 25 -24 20 0 25 -5 25 -25 0 -30 26 -34 35 -5 3 11 12 20 18 20 27 -1 41
-20 42 -62 3 -56 25 -118 43 -118 7 0 27 -14 44 -30 22 -23 29 -37 25 -56 -6
-31 21 -44 89 -44 25 0 54 -5 65 -11 16 -8 28 -6 54 10 33 19 34 19 51 0 25
-28 69 -24 112 10 20 17 48 32 62 35 14 3 41 10 60 15 19 6 53 11 75 11 22 0
49 7 59 15 11 8 27 15 37 15 9 0 29 10 44 21 22 18 26 28 22 53 -2 17 1 43 9
57 14 28 61 53 89 47 15 -3 15 -6 -4 -29 -17 -22 -18 -29 -7 -38 18 -15 53 -1
84 32 18 19 21 31 16 52 -8 30 -7 30 51 -9 17 -12 34 -27 38 -33 13 -20 48
-15 54 7 6 22 20 25 42 11 10 -7 24 -2 46 15 18 13 36 24 42 24 5 0 20 11 33
25 14 15 35 25 52 25 21 0 28 5 28 20 0 11 -5 20 -12 20 -6 0 -9 3 -5 6 3 3
21 0 39 -6 30 -11 40 -9 99 18 37 16 81 46 99 66 18 20 38 36 44 36 15 0 76
56 76 69 0 5 8 12 18 15 9 3 25 20 35 37 12 22 22 29 34 25 19 -8 105 79 126
127 6 15 19 27 28 27 9 0 54 36 100 81 46 44 104 97 127 117 58 49 140 133
177 182 17 21 38 42 48 45 10 4 29 24 43 45 14 21 34 40 45 43 22 6 27 55 7
76 -11 10 -6 11 24 6 31 -6 38 -4 47 14 7 12 22 21 35 21 13 0 29 7 36 15 7 8
23 15 36 15 13 0 28 9 33 19 6 10 23 23 38 29 16 5 40 21 53 35 14 15 31 27
39 27 8 0 30 16 49 36 19 20 54 44 78 55 31 13 44 24 44 39 0 15 7 20 25 20
14 0 29 8 36 21 7 14 17 19 29 16 22 -6 38 11 49 50 6 21 14 28 32 28 27 0 69
21 146 72 47 31 56 33 105 28 103 -12 110 -17 129 -90 4 -16 11 -40 14 -52 6
-17 2 -22 -17 -25 -18 -2 -24 -10 -26 -39 -2 -23 2 -40 12 -49 9 -7 16 -17 16
-23 0 -5 6 -15 14 -21 7 -6 16 -32 20 -58 4 -37 2 -49 -10 -56 -13 -7 -14 -13
-5 -30 6 -11 11 -29 11 -39 0 -10 7 -31 15 -47 21 -39 20 -41 -26 -89 -34 -35
-40 -48 -38 -78 2 -24 -3 -42 -14 -53 -13 -13 -14 -22 -7 -36 13 -25 4 -45
-25 -58 -28 -13 -56 -71 -48 -101 3 -14 0 -21 -8 -22 -8 -1 -23 -2 -34 -3 -11
0 -21 -10 -24 -21 -2 -11 -16 -34 -31 -52 -18 -21 -27 -39 -23 -52 3 -13 -2
-24 -16 -33 -12 -7 -21 -18 -21 -25 0 -7 -9 -18 -20 -25 -11 -7 -25 -30 -31
-51 -6 -25 -18 -41 -33 -47 -39 -15 -136 -148 -136 -187 0 -7 -6 -13 -13 -13
-7 0 -21 -6 -30 -12 -21 -16 -58 -114 -50 -134 4 -11 -5 -14 -42 -14 -61 0
-139 -51 -131 -86 4 -16 -4 -28 -38 -52 -33 -24 -46 -42 -56 -75 -8 -32 -24
-55 -56 -81 -24 -20 -51 -50 -59 -66 -9 -17 -22 -30 -31 -30 -21 0 -74 -41
-74 -57 0 -8 -8 -17 -17 -20 -10 -4 -29 -14 -43 -24 -149 -101 -215 -138 -286
-159 -27 -8 -46 -21 -53 -36 -8 -18 -19 -24 -41 -24 -20 0 -38 -9 -56 -30 -21
-23 -32 -28 -54 -24 -21 5 -36 -3 -76 -37 -27 -23 -50 -48 -52 -55 -4 -17 -46
-29 -63 -19 -17 11 -125 -46 -138 -73 -6 -13 -11 -33 -11 -46 0 -21 -6 -24
-61 -30 -95 -9 -161 -62 -129 -101 11 -13 7 -15 -21 -15 -45 0 -98 -21 -104
-40 -6 -19 -80 -70 -101 -70 -8 0 -17 -8 -20 -17 -3 -10 -10 -26 -15 -35 -5
-10 -9 -29 -9 -43 0 -17 -14 -38 -41 -63 -51 -46 -59 -49 -59 -24 0 40 -24 44
-71 10 -64 -46 -129 -113 -129 -133 0 -9 -9 -30 -21 -46 -15 -22 -28 -29 -53
-29 -37 0 -50 -11 -60 -52 -3 -16 -12 -28 -19 -28 -20 0 -60 -47 -54 -63 6
-16 -38 -87 -54 -87 -5 0 -15 -12 -21 -26 -7 -15 -25 -40 -41 -57 -16 -17 -37
-47 -47 -67 -10 -20 -26 -42 -34 -50 -13 -10 -15 -23 -10 -61 6 -42 4 -49 -16
-61 -12 -7 -30 -29 -40 -49 -18 -35 -18 -36 1 -55 17 -17 19 -28 13 -78 -6
-53 -10 -60 -44 -81 -21 -13 -40 -30 -42 -37 -4 -10 -8 -11 -20 -1 -19 16 -28
7 -28 -26 0 -18 -16 -42 -50 -75 -28 -28 -52 -62 -56 -79 -3 -17 -21 -58 -39
-91 -45 -83 -49 -109 -25 -131 26 -24 17 -35 -25 -28 -30 5 -39 1 -75 -37 -25
-26 -40 -51 -40 -66 0 -14 -11 -40 -25 -58 -14 -18 -25 -39 -25 -45 0 -17 -94
-102 -133 -121 -17 -8 -43 -33 -58 -54 -14 -21 -39 -45 -55 -54 -45 -23 -64
-43 -64 -69 0 -18 -5 -23 -24 -23 -18 0 -35 -14 -61 -50 -27 -37 -46 -52 -75
-60 -22 -6 -42 -15 -45 -20 -3 -6 -18 -10 -32 -10 -16 0 -27 -7 -30 -20 -3
-10 -14 -22 -24 -25 -10 -4 -28 -19 -39 -36 -12 -16 -26 -29 -31 -29 -6 0 -27
-13 -47 -29 -20 -16 -53 -32 -72 -36 -19 -4 -46 -16 -59 -26 -13 -11 -31 -19
-41 -19 -20 0 -78 -27 -103 -48 -13 -12 -22 -13 -40 -5 -18 9 -34 5 -82 -17
-33 -15 -73 -40 -89 -54 -16 -14 -54 -33 -85 -42 -31 -9 -74 -25 -97 -35 -23
-11 -44 -19 -48 -19 -3 0 -25 -8 -49 -19 -78 -34 -98 -41 -116 -41 -10 0 -24
-6 -30 -14 -7 -8 -35 -17 -64 -21 -29 -4 -78 -16 -110 -26 -32 -10 -100 -23
-152 -28 -55 -6 -104 -16 -117 -25 -12 -9 -31 -16 -41 -16 -14 0 -17 -5 -12
-21 6 -19 4 -21 -16 -17 -13 3 -32 9 -42 13 -14 6 -18 4 -15 -10 5 -27 -16
-28 -43 -3 -23 21 -30 22 -89 15 -79 -10 -74 -10 -186 -1 -64 5 -93 3 -98 -5
-4 -6 -17 -11 -29 -11 -12 0 -35 -9 -52 -20 -38 -25 -76 -25 -108 0 -41 33
-114 37 -173 10 -27 -12 -66 -22 -86 -21 -20 0 -48 -3 -62 -8 -18 -7 -38 -5
-75 10 -28 10 -63 19 -77 19 -14 0 -42 11 -62 25 -20 14 -42 25 -48 25 -6 0
-17 7 -24 15 -17 21 -109 44 -152 38 -33 -5 -39 -2 -47 20 -11 29 -39 47 -70
47 -12 0 -21 4 -21 9 0 6 -24 22 -53 38 -47 25 -52 32 -57 68 -3 22 -9 40 -15
40 -18 0 -36 16 -55 47 -10 17 -29 35 -41 42 -23 11 -32 24 -63 99 -12 28 -21
37 -40 37 -32 0 -48 22 -40 55 8 33 -11 71 -40 80 -13 4 -16 8 -8 12 13 5 16
41 4 60 -4 6 -19 14 -34 18 -14 4 -36 18 -49 31 -12 13 -28 24 -35 24 -13 0
-24 22 -24 47 0 13 -37 52 -51 53 -3 0 -25 18 -49 40 -40 37 -42 41 -27 57 13
16 14 31 5 108 -5 50 -9 102 -8 118 2 44 1 78 -5 150 -5 55 -2 82 15 133 l22
64 -21 29 c-12 16 -21 35 -21 43 0 8 -5 19 -12 26 -9 9 -8 12 5 12 9 0 18 6
19 13 0 6 2 23 4 37 5 51 25 112 46 140 17 23 19 37 14 70 -4 28 -2 50 9 70
10 20 14 42 10 63 -7 35 37 188 62 218 17 20 17 53 -2 88 -13 26 -13 33 2 62
22 46 28 49 103 49 49 0 61 3 47 11 -28 16 -20 26 22 26 25 0 42 -5 45 -14 10
-25 49 -33 71 -13 11 10 41 21 66 24 39 6 50 13 70 43 26 39 39 49 81 57 19 4
28 14 33 35 4 20 21 38 57 60 34 22 48 36 44 47 -4 9 3 18 18 24 14 5 27 18
31 29 3 11 18 25 34 32 15 7 35 24 44 38 9 14 21 33 26 41 5 8 12 23 15 33 3
9 15 17 26 17 11 0 20 4 20 9 0 4 18 21 39 35 48 34 91 93 91 127 0 14 4 29 9
35 5 5 11 20 13 34 2 19 10 26 31 28 19 2 44 19 70 48 22 24 46 44 51 44 19 0
46 60 40 86 -5 18 -2 24 10 24 9 0 36 16 62 35 25 19 49 35 54 35 4 0 6 9 3
20 -6 22 7 26 25 8 8 -8 14 -5 23 15 7 15 31 36 53 47 54 26 124 108 134 157
6 29 13 39 30 41 24 4 92 67 92 86 1 15 46 66 59 66 6 0 15 9 21 21 7 11 25
25 41 31 19 6 37 24 50 49 12 24 26 39 38 39 26 0 41 21 49 71 7 38 12 45 41
55 37 12 70 49 71 77 0 12 14 24 38 34 22 8 46 28 56 44 9 15 41 45 71 64 40
27 58 47 70 78 20 53 43 80 83 101 22 11 32 24 32 39 0 31 24 62 58 76 16 7
33 24 39 42 10 25 16 29 33 24 29 -9 53 13 45 42 -6 26 -6 26 125 138 45 39
88 81 95 95 13 25 93 108 174 184 23 21 48 50 55 65 16 30 49 63 127 125 44
35 58 53 63 81 5 24 15 39 29 45 34 14 62 40 117 110 29 36 67 73 86 83 24 12
34 24 34 41 0 17 11 31 38 47 44 27 56 41 79 91 9 21 25 40 34 43 10 3 32 29
49 56 24 40 28 54 19 65 -16 20 -3 44 24 44 20 0 23 4 19 25 -5 26 6 33 25 14
18 -18 52 0 77 39 13 20 51 57 84 82 37 28 64 57 71 77 7 18 22 38 34 45 35
18 77 71 71 90 -3 9 1 26 8 37 10 17 10 25 0 41 -14 23 -16 80 -3 80 5 0 11
-10 13 -22 3 -21 7 -23 63 -20 53 3 64 7 93 37 17 19 32 44 32 54 0 11 12 31
26 45 20 18 25 30 21 48 -6 21 -1 28 31 45 27 14 42 17 54 10 12 -8 24 -2 55
29 39 38 44 49 57 105 5 21 14 28 41 33 39 8 100 66 110 105 7 27 83 121 99
122 6 0 22 14 36 30 14 17 35 40 48 52 13 12 51 51 85 87 34 35 79 81 100 102
20 20 37 46 37 56 0 17 64 84 117 124 28 21 104 111 113 134 5 13 21 24 39 27
33 7 52 33 61 87 4 28 13 38 40 51 19 9 42 28 50 41 50 82 74 111 101 120 27
9 33 19 41 73 2 13 11 20 26 20 26 0 82 66 82 96 0 12 12 18 40 23 22 3 40 10
40 15 0 7 17 31 78 108 9 12 22 22 28 23 7 0 19 10 27 23 8 12 29 37 46 55 17
18 33 43 36 55 4 12 22 30 43 40 44 22 102 96 102 131 0 13 7 27 15 30 13 5
14 10 4 28 -10 19 -8 25 22 49 30 25 35 26 43 11 5 -9 10 -18 11 -20 2 -2 91
78 128 115 82 82 108 118 104 140 -4 23 7 31 18 13 8 -12 97 56 110 84 6 12
36 49 68 83 32 33 66 76 75 94 9 19 30 40 46 48 l29 14 -24 18 c-20 16 -22 20
-9 29 8 5 25 10 37 10 32 0 83 51 86 86 2 24 -2 29 -20 28 -13 0 -23 5 -23 13
0 7 4 13 10 13 5 0 25 14 43 30 19 17 44 30 56 30 17 0 21 6 21 30 0 37 30 56
60 38 27 -17 50 4 33 31 -14 22 0 41 31 41 29 0 96 50 96 71 0 11 4 19 9 19
13 0 72 89 69 103 -5 26 23 57 52 57 34 0 50 19 26 32 -13 8 -7 14 36 37 46
25 56 35 73 81 17 46 28 57 70 80 l50 27 0 53 c0 51 15 75 30 51 3 -6 13 -11
21 -11 21 0 167 151 198 204 13 22 33 50 45 60 12 11 21 28 21 39 0 20 26 57
41 57 4 0 15 -3 23 -6z m-420 -216 c9 -17 14 -33 11 -36 -8 -9 -57 47 -50 58
11 18 23 11 39 -22z m-699 -992 c0 -22 -14 -29 -33 -18 -17 12 -4 44 17 40 9
-2 16 -12 16 -22z m-445 -276 c0 -5 -4 -10 -10 -10 -5 0 -10 5 -10 10 0 6 5
10 10 10 6 0 10 -4 10 -10z m1153 -632 c6 -8 7 -23 4 -33 -6 -15 -11 -13 -37
15 -17 18 -30 36 -30 40 0 13 53 -5 63 -22z m-13 -132 c0 -11 -19 -15 -25 -6
-3 5 1 10 9 10 9 0 16 -2 16 -4z m-30 -200 c0 -3 -4 -8 -10 -11 -5 -3 -10 -1
-10 4 0 6 5 11 10 11 6 0 10 -2 10 -4z m-1850 -10 c0 -2 3 -11 6 -20 9 -24
-33 -20 -46 4 -9 18 -8 20 15 20 14 0 25 -2 25 -4z m-90 -21 c0 -8 -6 -15 -14
-15 -17 0 -28 14 -19 24 12 12 33 6 33 -9z m1705 -445 c3 -5 -1 -10 -10 -10
-9 0 -13 5 -10 10 3 6 8 10 10 10 2 0 7 -4 10 -10z m-45 -125 c0 -8 -4 -15
-10 -15 -5 0 -10 7 -10 15 0 8 5 15 10 15 6 0 10 -7 10 -15z m163 -1939 c7
-17 -17 -53 -26 -39 -8 12 3 53 13 53 4 0 10 -6 13 -14z m-1963 -306 c0 -5 -4
-10 -10 -10 -5 0 -10 5 -10 10 0 6 5 10 10 10 6 0 10 -4 10 -10z m-325 -260
c-3 -5 -10 -10 -16 -10 -5 0 -9 5 -9 10 0 6 7 10 16 10 8 0 12 -4 9 -10z m-11
-74 c-3 -9 -10 -16 -15 -16 -11 0 -12 21 -3 45 6 15 8 15 16 2 4 -8 5 -22 2
-31z m-2717 -262 c-3 -4 -14 -3 -24 0 -15 6 -15 8 -3 16 16 10 39 -4 27 -16z
m2138 -624 c3 -5 1 -10 -4 -10 -6 0 -11 5 -11 10 0 6 2 10 4 10 3 0 8 -4 11
-10z m755 -62 c0 -6 7 -20 17 -30 21 -24 10 -34 -22 -20 -23 11 -33 40 -18 55
10 11 23 8 23 -5z m80 -83 c10 -12 10 -15 -3 -15 -23 0 -47 11 -47 21 0 15 37
10 50 -6z m1910 -555 c0 -5 -5 -10 -11 -10 -5 0 -7 5 -4 10 3 6 8 10 11 10 2
0 4 -4 4 -10z m-285 -130 c8 -13 -5 -13 -25 0 -13 8 -13 10 2 10 9 0 20 -4 23
-10z m-1520 -710 c0 -26 -20 -36 -44 -21 -10 7 -11 13 -1 30 15 29 45 23 45
-9z m75 10 c0 -5 -6 -10 -14 -10 -8 0 -18 5 -21 10 -3 6 3 10 14 10 12 0 21
-4 21 -10z m-77 -97 c-7 -2 -19 -2 -25 0 -7 3 -2 5 12 5 14 0 19 -2 13 -5z
m307 -127 c0 -15 -18 -31 -26 -23 -7 7 7 37 17 37 5 0 9 -6 9 -14z m-287 -251
c8 -18 -11 -31 -25 -17 -11 11 -3 32 12 32 4 0 10 -7 13 -15z m-293 -190 c0
-15 -43 -12 -48 3 -3 10 4 13 22 10 15 -2 26 -7 26 -13z m-993 -1277 c-3 -8
-6 -5 -6 6 -1 11 2 17 5 13 3 -3 4 -12 1 -19z m-604 -362 c7 -17 -8 -36 -45
-59 -23 -15 -27 -15 -32 -1 -12 31 -6 44 27 58 42 19 44 19 50 2z m-2255 -957
c-2 -6 -8 -10 -13 -10 -5 0 -11 4 -13 10 -2 6 4 11 13 11 9 0 15 -5 13 -11z"/>
<path d="M6104 9449 c-8 -14 11 -33 25 -25 11 7 4 36 -9 36 -5 0 -12 -5 -16
-11z"/>
<path d="M11680 16140 c-93 -19 -146 -50 -155 -90 -3 -15 -15 -38 -26 -51 -23
-27 -25 -71 -2 -105 16 -25 16 -27 -7 -44 -15 -11 -25 -30 -26 -51 -1 -18 -9
-36 -18 -41 -9 -5 -16 -17 -16 -27 0 -10 -7 -32 -16 -49 -13 -28 -20 -74 -28
-204 -1 -23 -9 -43 -20 -51 -15 -11 -16 -17 -7 -34 12 -23 13 -119 1 -143 -39
-80 -39 -144 2 -204 30 -47 31 -49 15 -76 -19 -31 -21 -85 -7 -145 7 -30 6
-52 -6 -87 -15 -46 -15 -48 8 -78 19 -26 23 -43 21 -91 -1 -54 1 -61 22 -71
13 -6 31 -28 41 -50 15 -33 16 -45 6 -72 -17 -47 -15 -74 8 -86 15 -8 19 -17
15 -31 -6 -16 -1 -19 30 -19 36 0 36 0 29 -35 -5 -30 -2 -40 27 -74 19 -22 43
-52 54 -66 11 -15 28 -35 38 -45 18 -18 18 -18 -3 -25 -14 -4 -21 -14 -19 -28
1 -12 -2 -30 -6 -41 -10 -23 9 -36 51 -36 43 0 63 -24 40 -48 -14 -16 -14 -21
-1 -38 8 -10 15 -30 15 -44 0 -14 5 -42 10 -62 9 -29 16 -37 38 -40 22 -2 28
-9 30 -35 2 -20 13 -40 28 -52 27 -22 34 -81 10 -100 -19 -16 -9 -49 23 -84
21 -23 32 -28 59 -23 30 4 37 -1 33 -26 0 -4 8 -12 19 -18 11 -6 20 -20 20
-30 0 -11 7 -20 15 -20 15 0 18 -9 15 -47 -2 -29 34 -63 66 -63 14 0 45 -13
69 -30 24 -16 53 -30 65 -30 31 0 97 -67 82 -82 -23 -23 -12 -60 33 -112 25
-29 45 -58 45 -63 0 -14 45 -43 65 -43 15 0 45 -59 45 -91 0 -10 20 -40 45
-66 25 -25 45 -50 45 -55 0 -5 11 -13 25 -18 28 -11 32 -25 10 -34 -17 -6 -22
-76 -5 -76 5 0 12 -11 16 -24 3 -13 23 -41 45 -62 21 -21 39 -45 39 -55 0 -19
44 -69 61 -69 19 0 58 -48 67 -83 6 -22 15 -33 31 -35 20 -3 91 -67 130 -116
9 -13 16 -15 24 -7 16 16 27 13 27 -6 0 -17 76 -107 228 -270 37 -39 70 -85
74 -101 7 -26 16 -33 63 -48 46 -14 54 -20 50 -35 -4 -10 0 -28 9 -40 11 -16
12 -28 5 -47 -16 -42 -5 -54 48 -50 41 3 48 0 51 -17 6 -30 34 -57 54 -52 12
3 24 -6 37 -29 11 -19 25 -34 30 -34 5 0 14 -15 21 -32 6 -18 27 -49 46 -68
20 -19 44 -52 55 -72 10 -21 28 -42 38 -48 11 -5 29 -26 41 -45 17 -27 28 -35
48 -33 15 1 37 -2 50 -6 24 -8 72 -75 72 -101 0 -12 6 -15 20 -10 29 9 60 -3
60 -24 0 -10 16 -31 35 -47 26 -22 35 -37 35 -60 0 -37 24 -61 68 -70 27 -6
32 -11 32 -35 0 -16 7 -47 16 -69 9 -22 13 -51 10 -65 -8 -32 23 -51 55 -34
17 9 23 8 30 -2 13 -20 11 -27 -11 -46 -27 -23 -26 -51 3 -55 17 -2 23 -10 25
-38 2 -19 8 -39 15 -45 10 -9 14 -42 19 -157 0 -16 5 -28 9 -28 21 0 6 -29
-25 -51 -52 -35 -61 -84 -20 -99 l26 -10 -31 -30 c-36 -35 -40 -66 -10 -75 16
-6 19 -13 16 -38 -3 -18 -10 -45 -17 -62 -10 -27 -9 -32 9 -44 30 -20 26 -41
-7 -41 -33 0 -58 -36 -47 -69 3 -11 -1 -48 -9 -82 -9 -33 -16 -68 -16 -76 0
-9 -16 -31 -35 -50 -19 -19 -35 -40 -35 -47 0 -30 -89 -62 -104 -38 -3 5 -30
7 -61 4 -54 -4 -55 -4 -66 27 -9 26 -15 30 -33 25 -11 -4 -34 -17 -49 -30 -35
-29 -48 -30 -70 -4 -10 12 -29 20 -47 20 -16 0 -52 14 -78 30 -39 24 -61 30
-105 30 -31 0 -58 4 -61 9 -3 5 -15 7 -27 4 -14 -4 -25 1 -35 16 -11 15 -26
21 -52 21 -45 0 -79 22 -84 52 -2 13 -11 24 -23 26 -28 6 -55 32 -55 54 0 12
-13 25 -38 36 -20 9 -47 26 -59 37 -12 11 -42 36 -67 55 -26 19 -49 43 -52 53
-3 9 -20 25 -37 34 -18 9 -39 25 -46 37 -22 32 -83 86 -97 86 -7 0 -26 11 -42
25 -17 14 -37 25 -45 25 -16 0 -57 50 -57 69 0 6 -12 11 -26 11 -41 0 -104 49
-124 98 -8 18 -15 22 -30 17 -15 -5 -28 2 -49 24 -16 17 -40 31 -53 31 -28 1
-54 15 -100 56 -46 41 -52 52 -36 71 10 13 10 17 1 20 -7 3 -13 11 -13 18 0 8
-20 23 -45 34 -25 11 -45 25 -45 30 0 6 -14 18 -30 26 -26 14 -29 18 -19 36 8
16 13 18 24 9 8 -7 20 -10 27 -7 8 4 5 8 -9 12 -13 4 -23 11 -23 16 0 5 -12 4
-27 -2 -67 -26 -103 -16 -103 28 0 18 4 24 14 20 8 -3 19 0 25 7 8 9 4 19 -14
36 -22 21 -23 24 -8 35 35 26 -22 72 -75 62 -20 -4 -23 -1 -20 21 2 21 -3 27
-29 36 -18 6 -38 19 -45 29 -10 14 -24 18 -53 15 -38 -3 -40 -2 -37 24 2 19
-3 28 -18 33 -13 4 -20 15 -20 33 0 33 -8 45 -37 61 -14 7 -20 17 -17 26 4 10
0 15 -14 15 -40 0 -52 11 -52 47 0 36 -39 82 -71 83 -9 0 -21 11 -27 25 -6 14
-19 25 -27 25 -22 0 -73 27 -117 63 -29 23 -43 28 -64 23 -16 -4 -50 1 -90 14
-36 12 -72 19 -80 16 -8 -3 -32 1 -52 10 -65 29 -232 10 -289 -32 -17 -13 -36
-24 -42 -24 -5 0 -12 -8 -16 -18 -3 -11 -16 -24 -30 -30 -40 -19 -71 -102 -66
-183 2 -25 -2 -38 -13 -42 -9 -4 -21 -19 -27 -34 -9 -24 -7 -30 10 -44 27 -22
26 -29 -4 -29 -28 0 -55 -42 -55 -86 0 -14 -8 -48 -17 -74 -15 -42 -15 -52 -4
-74 10 -17 12 -48 9 -100 -3 -52 -1 -84 8 -101 7 -14 11 -32 8 -40 -3 -7 0
-23 6 -35 9 -16 9 -25 -1 -36 -9 -11 -9 -17 1 -29 6 -8 13 -40 15 -72 2 -32 9
-59 15 -61 20 -7 40 -34 40 -55 0 -31 64 -91 89 -84 28 7 44 -17 47 -66 2 -23
3 -45 3 -48 1 -4 22 -30 48 -58 46 -50 48 -51 104 -51 48 0 60 -4 73 -22 9
-12 16 -33 16 -45 0 -13 4 -31 9 -41 6 -9 12 -29 15 -43 5 -22 10 -25 31 -21
21 3 25 0 25 -18 0 -24 57 -90 77 -90 7 0 28 -13 46 -30 20 -17 46 -30 61 -30
28 0 46 -29 46 -76 0 -18 8 -27 27 -35 16 -6 35 -17 45 -25 13 -13 20 -13 36
-3 22 14 56 5 49 -14 -2 -6 -13 -12 -24 -12 -30 0 -40 -13 -17 -21 10 -4 34
-20 52 -36 23 -20 43 -28 71 -28 26 0 44 -7 57 -21 10 -12 34 -28 52 -36 25
-10 32 -19 30 -36 -2 -18 7 -26 50 -46 39 -19 52 -30 52 -46 0 -29 77 -135 97
-135 9 0 24 7 34 16 26 23 37 10 37 -40 -1 -61 30 -120 67 -124 61 -7 125 -63
125 -108 0 -31 5 -36 56 -60 55 -26 56 -27 52 -63 -4 -29 1 -44 29 -80 18 -24
33 -52 33 -63 0 -10 7 -21 16 -25 8 -3 19 -16 24 -28 7 -19 18 -23 69 -27 53
-4 66 -9 108 -45 30 -25 48 -49 49 -63 1 -13 10 -31 21 -39 10 -9 23 -32 29
-51 8 -27 15 -34 31 -32 26 4 53 -37 53 -81 0 -42 7 -49 32 -36 17 9 26 6 52
-19 17 -16 46 -32 65 -36 19 -3 42 -13 52 -22 9 -8 36 -25 60 -37 41 -20 44
-25 44 -62 1 -22 5 -47 10 -55 6 -8 10 -41 10 -72 0 -50 4 -61 28 -83 15 -14
27 -32 27 -40 0 -8 9 -15 20 -15 11 0 20 -7 20 -15 0 -8 -8 -15 -18 -15 -30 0
-32 -9 -10 -46 15 -25 22 -57 24 -111 2 -42 6 -84 9 -92 7 -22 67 -61 93 -61
29 0 38 -19 16 -35 -18 -12 -17 -15 8 -50 14 -21 37 -42 50 -49 12 -6 33 -31
45 -55 12 -24 31 -52 43 -63 13 -12 20 -31 20 -56 0 -20 9 -50 20 -67 57 -85
88 -119 116 -127 17 -4 42 -19 55 -32 73 -72 85 -96 47 -96 -17 0 -19 -3 -10
-12 8 -8 15 -8 25 0 23 19 57 3 57 -27 0 -14 4 -33 9 -40 6 -9 6 -22 1 -31
-12 -23 19 -108 42 -113 10 -3 18 -14 18 -25 0 -26 18 -38 33 -23 14 14 127
15 127 1 0 -6 -5 -19 -12 -29 -14 -22 -5 -49 19 -57 45 -14 93 -38 93 -46 0
-5 -7 -11 -15 -14 -28 -11 46 -41 88 -36 32 4 37 1 37 -16 0 -11 16 -31 40
-47 22 -15 40 -31 40 -36 0 -4 8 -10 19 -14 12 -3 21 -19 25 -43 8 -55 40 -86
82 -79 29 5 37 1 64 -29 16 -19 30 -46 30 -59 0 -22 4 -25 41 -25 36 0 41 -3
50 -30 8 -21 18 -30 32 -30 12 0 36 -9 52 -20 17 -11 37 -20 46 -20 9 0 24 -9
34 -20 10 -11 28 -20 39 -20 29 0 40 -10 51 -45 8 -23 18 -31 45 -37 94 -19
116 -29 177 -82 21 -17 35 -18 75 -1 11 4 29 -5 55 -28 22 -20 54 -37 76 -41
28 -5 53 -22 97 -68 l60 -61 86 -4 c67 -3 92 -8 112 -23 13 -11 34 -20 46 -20
11 0 30 -7 40 -15 11 -8 41 -15 67 -15 35 0 55 -6 76 -23 34 -28 100 -49 109
-35 3 5 23 7 46 3 23 -4 59 -2 84 5 34 10 47 10 58 1 10 -9 33 -10 78 -4 35 4
74 6 87 5 13 -2 37 2 52 9 22 9 28 16 23 33 -4 17 3 26 38 45 50 27 106 31
191 12 57 -12 111 -8 134 11 6 5 39 10 73 12 33 2 66 8 73 15 6 6 27 11 46 11
20 0 43 8 55 19 23 21 130 41 217 41 47 0 51 2 46 21 -8 29 11 33 110 21 48
-6 92 -7 98 -4 5 4 30 7 55 7 l45 0 -1 43 -1 42 49 0 c35 0 53 5 69 21 17 17
30 20 82 17 63 -3 71 2 90 56 2 5 19 3 39 -4 34 -13 38 -12 74 18 35 29 42 31
94 25 53 -5 57 -4 73 21 10 14 26 26 37 26 13 0 26 12 37 35 19 40 29 44 38
15 10 -32 50 -25 80 15 15 19 35 37 46 40 10 4 19 13 19 20 0 8 11 26 24 40
14 15 26 30 28 33 5 11 93 52 111 52 9 0 19 5 22 11 4 5 18 15 32 20 22 8 25
14 19 39 -5 26 -1 32 24 45 16 9 38 28 47 43 10 15 30 37 45 50 15 13 33 42
40 65 6 23 17 49 24 57 19 23 44 86 44 112 0 23 11 45 43 91 15 21 16 30 6 48
-10 19 -9 25 5 35 20 14 39 113 38 194 -1 30 -1 73 -1 96 0 24 -7 46 -15 53
-22 19 -8 43 23 39 21 -2 27 2 29 21 2 13 -5 36 -17 51 -14 20 -22 50 -26 106
-4 44 -11 89 -17 100 -7 15 -7 28 1 42 16 30 14 74 -5 101 -11 15 -14 33 -10
52 4 20 -1 43 -14 68 -16 32 -23 38 -43 34 -14 -3 -27 -1 -30 4 -2 4 1 46 8
93 7 47 10 88 6 91 -3 4 -30 14 -58 24 -58 18 -66 30 -27 39 20 5 24 11 18 29
-3 12 -17 32 -30 45 -13 13 -24 31 -24 42 0 10 -18 37 -41 59 l-41 40 18 30
c17 29 17 31 -1 70 -10 23 -22 41 -27 41 -4 0 -8 14 -8 30 0 32 -9 37 -28 18
-22 -22 -37 8 -35 66 2 41 -2 60 -17 79 -11 14 -20 30 -20 36 0 6 -11 16 -25
21 -29 11 -31 22 -10 40 19 16 20 50 1 50 -8 0 -17 -4 -20 -9 -8 -13 -46 -1
-46 14 0 7 8 16 17 20 16 6 16 8 -4 23 -11 9 -30 32 -41 51 -15 25 -33 38 -69
50 -36 12 -49 22 -51 39 -3 16 2 22 16 22 20 0 35 31 26 53 -4 12 -43 38 -100
69 -24 13 -33 25 -38 56 -8 51 -75 134 -144 178 -33 22 -57 45 -63 63 -7 19
-24 35 -50 46 -21 10 -60 41 -85 69 -25 28 -65 71 -89 96 -23 25 -51 60 -61
78 -10 17 -26 32 -35 32 -16 0 -95 41 -136 71 -14 9 -22 25 -21 40 4 61 -1 77
-22 72 -30 -8 -62 25 -59 62 3 35 -29 95 -51 95 -8 0 -26 9 -39 19 -19 14 -24
27 -23 55 1 33 -2 38 -28 48 -24 8 -30 16 -30 39 0 18 -7 32 -19 38 -10 6 -34
29 -51 51 -25 32 -30 44 -21 53 9 9 13 6 18 -11 3 -15 11 -21 20 -18 8 3 17 6
19 6 3 0 -6 18 -18 40 -19 34 -28 40 -56 40 -26 0 -36 7 -52 32 -11 18 -17 41
-14 53 3 14 -4 30 -22 48 -17 17 -25 34 -21 46 3 14 1 18 -9 14 -19 -7 -44 15
-44 38 0 15 -5 17 -31 12 -30 -6 -31 -5 -19 16 6 13 9 29 6 37 -7 17 -33 19
-38 2 -8 -22 -28 3 -22 27 7 27 -14 71 -50 104 -14 14 -26 32 -26 41 0 8 -36
51 -81 94 -61 59 -85 77 -101 73 -28 -8 -105 28 -153 71 -23 20 -58 51 -78 67
-20 17 -37 38 -37 48 0 30 -20 59 -36 53 -25 -10 -63 12 -115 66 -45 47 -49
57 -44 86 4 24 2 32 -9 32 -8 0 -16 -5 -18 -11 -3 -9 -10 -9 -26 0 -16 8 -22
21 -22 45 0 37 -28 68 -75 83 -24 8 -31 17 -35 44 -4 26 -10 35 -28 37 -24 4
-62 69 -62 108 0 25 -34 54 -63 54 -13 0 -18 7 -17 23 4 42 0 54 -25 81 -14
15 -25 36 -25 46 0 11 -11 27 -25 36 -16 11 -25 26 -25 43 0 28 -18 68 -44 97
-55 63 -67 81 -78 116 -7 23 -24 49 -41 61 -16 12 -48 41 -71 65 -31 32 -46
41 -60 36 -16 -6 -17 -4 -7 14 10 18 8 24 -14 38 -17 11 -25 25 -25 45 0 30
-17 38 -37 18 -7 -7 -15 -6 -27 6 -10 10 -24 14 -37 10 -19 -6 -20 -4 -13 32
3 21 10 42 15 48 14 14 11 23 -12 35 -16 9 -24 8 -38 -5 -17 -15 -20 -14 -37
12 -10 15 -17 38 -16 50 1 12 -7 28 -17 35 -10 7 -26 40 -36 73 -18 62 -54
105 -87 105 -12 0 -18 8 -18 21 0 12 -16 39 -35 60 -19 22 -35 44 -35 49 0 6
-16 10 -35 10 -40 0 -60 26 -32 42 36 20 1 99 -37 85 -17 -7 -66 29 -66 48 0
7 -11 22 -25 33 -14 11 -25 25 -25 32 0 20 -41 80 -54 80 -26 0 -43 36 -49
104 -8 83 -25 107 -70 99 -30 -5 -33 -2 -59 51 -21 43 -34 57 -55 62 -50 11
-54 13 -74 58 -11 25 -24 48 -29 51 -6 3 -10 16 -10 28 -1 15 -17 33 -52 57
-28 19 -72 53 -97 76 -25 22 -54 44 -63 47 -11 4 -18 17 -18 32 0 27 -3 29
-28 16 -23 -12 -62 4 -62 25 0 10 7 25 16 35 18 19 11 39 -12 39 -9 0 -30 11
-48 25 -18 14 -40 25 -48 25 -9 0 -35 15 -57 34 -23 19 -56 40 -75 46 -25 8
-33 15 -29 29 2 10 -3 35 -11 56 -9 20 -16 46 -16 56 0 10 -9 33 -20 51 -12
20 -17 41 -14 55 4 13 2 24 -5 24 -6 1 -16 2 -23 3 -6 0 -26 26 -42 56 -52 94
-72 120 -130 172 -59 52 -66 70 -40 99 15 17 15 21 1 43 -9 13 -28 27 -43 30
-15 4 -42 18 -60 32 -18 14 -37 23 -41 21 -18 -11 -73 24 -98 62 -14 23 -29
41 -33 41 -5 0 -16 18 -26 40 -9 22 -29 49 -44 60 -63 48 -74 57 -118 96 -32
30 -47 52 -51 77 -4 30 -12 38 -44 51 -22 9 -46 16 -54 16 -8 0 -25 11 -37 25
-12 14 -27 25 -33 25 -6 0 -22 11 -34 24 -18 19 -21 31 -16 55 5 25 1 38 -25
70 -18 22 -43 42 -56 45 -17 5 -24 13 -24 31 0 14 -4 25 -9 25 -17 0 -52 71
-45 92 9 28 -5 88 -20 88 -7 0 -21 9 -31 20 -10 11 -26 20 -37 20 -21 0 -23
11 -5 29 10 10 8 15 -9 29 -11 9 -40 47 -64 85 -24 37 -47 67 -50 67 -3 0 -27
19 -53 43 -29 26 -47 51 -47 65 0 16 -6 22 -21 22 -28 0 -59 18 -59 34 0 20
-57 60 -115 80 -27 10 -99 22 -158 26 -60 5 -115 14 -123 20 -21 18 -91 18
-174 0z m345 -274 c40 -38 44 -62 14 -71 -23 -8 -21 -23 5 -39 13 -9 19 -7 27
7 8 14 14 16 25 6 8 -6 14 -17 14 -25 0 -27 24 -64 42 -64 15 0 18 -8 18 -49
0 -51 13 -72 33 -52 15 15 23 14 41 -5 14 -14 14 -19 1 -51 -8 -19 -15 -37
-15 -38 0 -1 14 -8 30 -15 20 -8 30 -19 30 -34 0 -22 59 -76 83 -76 27 0 48
-36 45 -76 -5 -95 0 -113 36 -128 28 -12 33 -18 29 -36 -5 -19 -3 -21 15 -16
19 6 21 2 24 -36 2 -32 8 -44 21 -46 15 -3 18 0 12 18 -6 20 8 50 25 50 4 0
10 -23 13 -50 3 -28 15 -62 27 -77 11 -14 20 -34 20 -44 0 -24 19 -24 36 -1
12 16 15 16 59 -8 54 -29 125 -90 125 -107 0 -7 13 -19 29 -27 16 -9 33 -29
39 -45 6 -16 21 -35 34 -42 42 -22 70 -56 63 -78 -4 -14 0 -23 15 -31 12 -6
28 -27 36 -46 10 -24 21 -34 37 -34 15 0 29 -11 41 -31 10 -17 31 -35 47 -41
26 -9 29 -14 24 -42 -6 -35 17 -67 97 -130 44 -35 46 -39 36 -67 -12 -35 -3
-77 22 -104 13 -13 20 -38 22 -75 l3 -55 55 -10 c65 -12 80 -20 80 -44 0 -10
10 -31 22 -47 14 -17 21 -38 20 -55 -4 -38 25 -81 49 -74 27 9 57 -3 64 -26 5
-15 16 -19 50 -19 28 0 45 -5 48 -14 3 -8 22 -22 42 -32 39 -18 40 -24 20
-106 -7 -25 -4 -27 36 -38 78 -20 97 -31 108 -62 8 -23 15 -28 31 -23 16 5 20
2 20 -19 0 -20 8 -29 36 -41 29 -12 35 -19 31 -35 -6 -24 3 -32 23 -20 8 5 22
4 32 -1 14 -8 16 -14 8 -29 -13 -24 -3 -50 20 -50 10 0 23 -7 30 -15 7 -8 21
-15 31 -15 24 0 34 -18 34 -60 0 -31 3 -35 24 -32 21 3 23 1 18 -24 -3 -15 -3
-34 0 -41 8 -21 40 -15 46 9 5 18 8 19 21 8 20 -16 21 -40 1 -40 -25 0 -18
-48 10 -66 13 -9 27 -24 30 -33 3 -10 32 -39 65 -65 56 -43 60 -49 60 -86 0
-29 5 -43 17 -47 9 -4 30 -22 46 -40 16 -18 39 -33 51 -33 11 -1 37 -14 56
-30 l34 -30 -27 0 c-33 0 -33 -3 -2 -44 13 -18 31 -48 39 -68 13 -31 22 -37
56 -43 37 -6 40 -9 40 -40 0 -18 7 -38 15 -45 8 -7 15 -19 15 -26 0 -7 13 -20
29 -28 15 -8 36 -31 45 -50 9 -19 24 -37 34 -39 10 -3 6 -5 -10 -6 -16 0 -28
-6 -28 -13 0 -16 41 -58 56 -58 7 0 18 -9 24 -20 6 -12 21 -20 35 -20 55 0
115 -58 115 -110 0 -12 13 -26 33 -36 35 -18 97 -73 97 -86 0 -5 12 -20 28
-33 22 -19 25 -26 15 -36 -17 -18 -16 -39 2 -39 8 0 18 -14 23 -32 6 -26 14
-34 35 -36 30 -4 34 -14 13 -31 -8 -7 -18 -26 -21 -43 -8 -35 5 -48 48 -48 21
0 30 -6 34 -21 4 -15 12 -20 29 -16 16 3 25 -2 33 -20 6 -12 15 -23 21 -23 5
0 10 -11 10 -24 0 -21 4 -24 33 -22 28 1 32 -2 32 -24 1 -47 17 -99 36 -116
10 -9 19 -25 19 -35 0 -10 9 -23 20 -29 22 -12 26 -35 9 -45 -5 -4 -18 0 -28
9 -17 15 -19 15 -25 1 -4 -12 6 -21 40 -35 25 -11 49 -20 54 -20 12 0 50 -55
50 -73 0 -8 -7 -20 -15 -27 -19 -16 -2 -40 29 -40 40 0 64 -12 75 -36 6 -13
17 -24 24 -24 7 0 24 -12 38 -26 17 -19 31 -24 52 -21 24 3 30 -1 46 -39 11
-23 28 -47 39 -53 11 -6 25 -24 30 -41 6 -16 21 -35 34 -40 13 -6 31 -24 40
-41 10 -16 33 -36 53 -44 19 -8 41 -27 49 -43 8 -15 26 -38 41 -52 15 -14 33
-40 40 -57 11 -25 20 -33 39 -33 15 0 26 -4 26 -10 0 -19 40 -50 65 -50 15 0
25 -6 25 -14 0 -25 49 -74 81 -81 19 -4 34 -16 39 -30 7 -18 18 -24 47 -27 31
-2 39 -7 41 -26 2 -13 -2 -30 -9 -38 -21 -26 5 -37 77 -35 61 2 66 1 59 -16
-4 -10 -11 -43 -15 -73 -6 -51 -5 -56 19 -75 14 -11 35 -20 46 -21 40 -2 46
-4 40 -14 -3 -5 -15 -10 -26 -10 -12 0 -19 -3 -17 -7 24 -49 32 -63 39 -63 17
0 59 -81 59 -113 0 -21 8 -41 20 -52 11 -10 20 -23 20 -29 0 -6 14 -26 30 -43
23 -25 38 -33 65 -33 32 0 35 -3 35 -29 0 -16 6 -31 15 -35 10 -3 15 -19 15
-46 0 -33 3 -41 16 -38 22 4 94 -66 94 -91 0 -11 12 -31 26 -44 l25 -24 -18
-37 c-18 -38 -18 -38 6 -57 28 -23 59 -24 89 -3 28 19 41 11 18 -11 -12 -12
-13 -21 -6 -35 14 -26 64 -60 88 -60 20 0 52 -38 52 -62 0 -18 50 -58 71 -58
11 0 28 -16 41 -40 13 -22 28 -40 33 -40 6 0 33 -25 60 -56 47 -53 54 -57 104
-62 56 -5 59 -10 36 -64 -5 -14 -2 -18 12 -18 10 0 36 -15 57 -34 33 -31 36
-38 26 -56 -10 -19 -6 -26 33 -63 39 -37 43 -46 39 -78 -4 -37 8 -54 43 -61
14 -2 21 -15 27 -47 4 -24 17 -54 29 -67 16 -17 19 -26 10 -42 -7 -14 -6 -24
3 -38 7 -10 17 -34 21 -52 4 -22 16 -37 36 -47 16 -9 29 -21 29 -28 0 -7 16
-21 35 -31 39 -21 42 -31 19 -57 -15 -17 -15 -21 0 -54 11 -23 15 -46 11 -69
-7 -37 -1 -45 39 -48 20 -2 26 -8 26 -25 0 -13 3 -23 8 -23 4 0 18 -9 31 -19
20 -16 22 -20 10 -39 -11 -18 -10 -23 11 -40 20 -16 26 -32 31 -88 13 -139 31
-223 51 -230 42 -13 41 -84 -2 -134 -21 -25 -27 -75 -10 -85 8 -5 7 -11 -1
-21 -9 -11 -9 -27 0 -69 12 -51 11 -57 -9 -85 -16 -22 -21 -41 -18 -66 5 -38
-27 -142 -56 -187 -24 -36 -31 -105 -16 -152 11 -33 10 -39 -9 -59 -12 -13
-21 -36 -21 -54 0 -22 -6 -34 -17 -38 -70 -23 -73 -25 -73 -66 0 -35 -2 -39
-21 -33 -15 5 -25 1 -35 -13 -7 -11 -25 -23 -39 -26 -14 -4 -25 -11 -25 -17 0
-17 -150 -159 -168 -159 -10 0 -34 -22 -55 -50 -51 -68 -80 -86 -113 -71 -22
10 -30 8 -62 -19 -20 -16 -44 -30 -52 -30 -9 0 -29 -13 -45 -30 -22 -23 -38
-30 -66 -30 -21 0 -41 -4 -44 -10 -3 -5 -26 -10 -50 -10 -36 0 -48 -5 -61 -25
-11 -17 -28 -26 -62 -31 -26 -3 -54 -13 -63 -20 -9 -8 -24 -12 -34 -8 -14 6
-16 3 -10 -14 4 -16 2 -22 -8 -22 -8 0 -20 -7 -27 -15 -14 -17 -75 -20 -85 -5
-13 22 -43 10 -83 -33 -14 -15 -32 -18 -113 -16 -54 1 -102 -2 -108 -5 -6 -4
-18 -3 -27 2 -12 7 -35 2 -77 -15 -48 -19 -69 -23 -111 -18 -45 6 -54 4 -71
-15 -17 -18 -26 -20 -68 -15 -40 6 -52 4 -70 -13 -22 -20 -75 -33 -131 -32
-16 0 -39 -6 -52 -15 -13 -8 -31 -15 -41 -15 -9 0 -26 -9 -38 -20 -27 -25
-185 -41 -210 -20 -11 9 -19 9 -28 2 -9 -8 -24 -7 -52 3 -22 8 -50 14 -61 15
-12 0 -28 7 -35 16 -21 25 -92 52 -132 51 -28 -1 -44 6 -68 29 -17 16 -38 28
-47 26 -9 -1 -45 23 -80 53 -57 49 -68 55 -109 55 -29 0 -58 8 -80 21 -18 12
-40 18 -48 15 -16 -6 -85 36 -98 60 -4 8 -18 14 -30 14 -19 0 -54 24 -179 120
-14 11 -32 20 -40 20 -7 0 -30 9 -51 20 -20 11 -43 20 -51 20 -8 0 -21 8 -28
19 -7 10 -28 26 -45 35 -24 12 -33 23 -33 42 0 16 -13 37 -33 57 -19 18 -36
38 -38 44 -2 7 -19 14 -38 16 -28 2 -36 8 -44 32 -14 45 -28 57 -56 52 -18 -4
-30 2 -44 19 -10 14 -36 33 -57 44 -22 11 -42 31 -50 49 -7 17 -16 31 -21 31
-4 0 -29 27 -54 61 -43 55 -50 60 -76 54 -16 -4 -29 -3 -29 2 0 4 -11 21 -25
37 -14 16 -25 35 -25 42 0 6 -16 21 -36 33 -19 12 -32 25 -29 31 3 5 -11 27
-32 48 -21 21 -58 61 -82 90 -27 32 -53 52 -65 52 -19 0 -21 6 -21 56 0 60 3
55 -91 130 -37 30 -38 32 -25 57 13 24 12 29 -2 45 -10 10 -17 26 -17 36 0 9
-5 37 -11 62 -10 39 -15 44 -39 44 -31 0 -40 14 -33 53 3 17 -3 40 -16 63 -20
34 -21 42 -11 107 l11 70 -32 33 c-31 32 -31 34 -20 79 14 57 7 68 -54 85 -50
14 -49 13 -35 40 8 15 6 24 -10 40 -11 11 -22 32 -26 47 -10 43 -43 73 -80 73
-27 0 -34 5 -43 30 -7 22 -16 30 -33 30 -35 0 -47 12 -55 54 -8 39 -14 43 -97
70 -18 6 -18 8 -2 25 24 27 6 70 -33 77 -16 4 -33 16 -39 28 -6 14 -41 37 -88
60 -96 47 -129 73 -112 93 8 10 8 17 0 25 -7 7 -12 18 -12 26 0 59 -92 152
-151 152 -29 0 -31 4 -44 69 -9 42 -62 96 -102 105 -24 6 -34 17 -51 57 -12
27 -22 56 -22 64 0 17 -32 20 -60 5 -17 -9 -21 -5 -31 35 -10 41 -15 46 -53
56 -22 6 -47 13 -54 15 -7 2 -18 16 -24 31 -7 15 -18 32 -25 36 -7 4 -13 21
-13 36 0 23 -8 34 -42 54 -26 15 -48 22 -57 17 -14 -7 -52 30 -77 75 -7 13
-25 22 -50 25 -27 4 -42 12 -50 28 -15 31 -55 72 -70 72 -6 0 -18 7 -25 16
-12 15 -29 28 -117 86 -15 9 -33 30 -42 46 -29 55 -115 142 -160 163 -25 12
-52 25 -60 28 -8 4 -28 31 -44 60 -25 46 -31 52 -52 47 -20 -5 -26 -2 -34 19
-6 15 -35 41 -71 63 -89 53 -135 97 -121 115 16 18 4 82 -19 103 -11 9 -19 29
-19 43 0 14 -7 37 -15 51 -32 57 -45 95 -44 129 2 58 -21 205 -35 221 -22 24
-12 82 18 115 23 25 30 27 46 17 16 -10 21 -9 30 7 5 11 10 32 10 47 0 29 38
114 52 114 4 0 10 -11 14 -25 5 -21 9 -23 20 -14 21 17 105 -63 132 -123 19
-43 25 -49 66 -59 25 -6 51 -17 57 -25 6 -8 17 -14 25 -14 9 0 14 -18 16 -57
l3 -58 42 -1 c32 -1 48 -7 62 -25 11 -13 20 -30 21 -36 0 -7 9 -13 20 -13 14
0 20 -7 20 -21 0 -11 6 -33 14 -47 7 -15 17 -40 22 -56 5 -16 18 -34 29 -40
11 -5 31 -18 45 -27 14 -9 43 -19 65 -23 64 -11 75 -16 76 -34 0 -23 52 -117
64 -117 6 0 11 10 13 23 8 51 71 2 72 -55 0 -27 4 -33 23 -33 41 0 85 -36 89
-72 2 -24 12 -38 38 -56 19 -12 40 -36 47 -52 10 -25 18 -30 47 -30 40 0 87
-16 98 -33 4 -7 8 -21 8 -32 0 -27 65 -90 113 -110 26 -11 37 -21 35 -33 -1
-9 1 -23 5 -29 11 -18 52 -16 67 2 11 13 15 12 30 -8 10 -13 37 -29 59 -36 36
-10 41 -15 41 -42 0 -23 7 -34 35 -50 19 -11 37 -29 40 -39 5 -17 23 -26 90
-46 17 -6 31 -18 34 -29 4 -24 78 -125 91 -125 6 0 19 5 30 12 16 10 23 9 44
-11 31 -29 131 -71 168 -71 15 0 53 -16 84 -36 42 -27 63 -35 84 -30 18 3 33
0 40 -9 7 -8 21 -15 32 -15 11 0 41 -15 67 -34 40 -29 57 -34 131 -41 47 -5
103 -9 125 -10 22 -1 47 -4 55 -7 39 -14 114 -28 150 -28 21 0 41 -4 44 -9 3
-5 42 -7 86 -5 71 3 83 1 101 -17 27 -27 54 -20 106 31 32 30 55 43 92 50 72
13 154 78 171 133 6 23 18 53 25 67 8 14 10 32 6 39 -10 15 5 82 30 137 21 46
23 71 10 107 -13 34 -14 190 -1 272 6 39 13 126 15 195 4 105 2 127 -12 142
-15 17 -15 19 0 36 25 28 21 60 -9 74 -21 10 -25 18 -23 47 3 42 -15 81 -37
81 -14 0 -15 8 -10 45 7 41 5 48 -23 75 -17 18 -40 30 -55 30 -15 0 -30 8 -36
19 -15 28 -13 31 20 42 26 10 29 15 24 37 -10 40 -10 40 -82 77 -37 19 -59 34
-50 35 25 0 48 40 41 72 -4 22 -13 30 -42 38 -21 5 -48 21 -61 35 -21 22 -23
29 -12 46 11 18 10 24 -11 43 -13 12 -29 20 -36 18 -15 -5 -61 36 -61 54 0 19
-35 35 -67 32 -21 -2 -28 2 -31 17 -2 11 -34 48 -70 82 -80 74 -77 71 -101
103 -16 20 -22 23 -32 13 -18 -18 -50 -17 -43 1 9 23 -22 60 -102 122 -52 42
-74 65 -74 81 0 12 -8 28 -19 35 -36 25 -91 100 -91 123 0 16 -29 53 -94 119
-87 89 -126 144 -126 178 0 8 -18 23 -39 33 -25 11 -42 26 -45 41 -4 15 -21
31 -42 42 -27 12 -43 31 -64 72 -34 69 -46 145 -24 154 10 4 14 16 12 38 -2
25 -8 34 -25 36 -14 2 -23 10 -23 21 0 10 -11 23 -24 29 -27 12 -112 181 -122
242 -4 22 -17 54 -30 72 -13 17 -24 37 -24 42 0 10 -48 87 -70 114 -13 15 -60
16 -60 2 0 -6 7 -13 15 -16 29 -12 16 -34 -19 -34 -26 0 -36 5 -41 20 -5 17
-15 20 -61 20 -50 0 -56 2 -73 31 -11 17 -33 39 -49 49 -19 12 -33 30 -37 52
-10 45 -50 94 -86 107 -16 6 -33 21 -39 35 -5 15 -14 26 -20 26 -13 0 -13 33
1 47 7 7 7 26 -1 64 -6 30 -11 61 -11 69 -1 28 -23 75 -41 88 -10 7 -18 19
-18 27 0 7 -7 20 -15 29 -9 8 -23 32 -32 53 -8 21 -26 51 -39 66 -13 16 -24
39 -24 51 0 12 -11 46 -25 74 -14 29 -25 58 -25 66 0 7 -13 30 -30 51 -16 21
-30 41 -30 44 0 3 -17 24 -38 46 -45 47 -142 180 -142 195 0 5 -18 39 -40 75
-22 36 -40 73 -40 83 0 29 -28 60 -58 64 -26 3 -27 5 -24 49 2 39 -1 50 -20
66 -56 46 -90 93 -99 134 -6 24 -17 52 -26 61 -15 17 -15 20 0 36 22 25 21 41
-4 68 -21 22 -23 35 -19 139 1 17 1 82 0 145 -5 235 1 356 19 450 11 52 22
121 25 152 3 32 15 72 26 90 25 42 25 69 0 98 -36 42 -23 55 57 58 47 2 75 8
83 17 22 26 68 18 105 -19z m1935 -2346 c0 -5 -4 -10 -9 -10 -6 0 -13 5 -16
10 -3 6 1 10 9 10 9 0 16 -4 16 -10z m1430 -1685 c0 -8 -4 -15 -10 -15 -5 0
-10 7 -10 15 0 8 5 15 10 15 6 0 10 -7 10 -15z m-1702 -337 c13 -13 17 -48 5
-48 -12 0 -43 33 -43 47 0 16 22 17 38 1z m462 -432 c0 -8 -4 -17 -9 -21 -12
-7 -24 12 -16 25 9 15 25 12 25 -4z m1755 -56 c-5 -8 -11 -8 -17 -2 -6 6 -7
16 -3 22 5 8 11 8 17 2 6 -6 7 -16 3 -22z m-4915 -130 c0 -5 -5 -10 -11 -10
-5 0 -7 5 -4 10 3 6 8 10 11 10 2 0 4 -4 4 -10z m1885 -2419 c3 -5 1 -12 -4
-15 -12 -8 -41 3 -41 15 0 12 37 12 45 0z m5905 -1281 c0 -5 -4 -10 -9 -10 -6
0 -13 5 -16 10 -3 6 1 10 9 10 9 0 16 -4 16 -10z m-110 -364 c0 -3 -4 -8 -10
-11 -5 -3 -10 -1 -10 4 0 6 5 11 10 11 6 0 10 -2 10 -4z m-4630 -521 c0 -8 -6
-15 -14 -15 -7 0 -19 7 -26 15 -11 13 -8 15 14 15 16 0 26 -5 26 -15z m450
-385 c0 -5 -4 -10 -10 -10 -5 0 -10 5 -10 10 0 6 5 10 10 10 6 0 10 -4 10 -10z
m1175 -619 c7 -12 -12 -24 -25 -16 -11 7 -4 25 10 25 5 0 11 -4 15 -9z"/>
<path d="M16865 10090 c-4 -6 -3 -16 3 -22 6 -6 12 -6 17 2 4 6 3 16 -3 22 -6
6 -12 6 -17 -2z"/>
<path d="M7295 7220 c3 -5 8 -10 11 -10 2 0 4 5 4 10 0 6 -5 10 -11 10 -5 0
-7 -4 -4 -10z"/>
</g>
</svg>
